<mxfile host="app.diagrams.net" modified="2020-10-03T10:19:21.244Z" agent="5.0 (Windows NT 10.0; Win64; x64) AppleWebKit/537.36 (KHTML, like Gecko) Chrome/85.0.4183.121 Safari/537.36" etag="zh1gJ7r_5ZplkgPLqRp2" version="13.7.7" type="github">
  <diagram name="Page-1" id="10a91c8b-09ff-31b1-d368-03940ed4cc9e">
    <mxGraphModel dx="2844" dy="1524" grid="1" gridSize="10" guides="1" tooltips="1" connect="1" arrows="1" fold="1" page="1" pageScale="1" pageWidth="1100" pageHeight="850" background="#ffffff" math="0" shadow="0">
      <root>
        <mxCell id="0" />
        <mxCell id="1" parent="0" />
        <mxCell id="Bq9aWbsnDzeMckkz2ZHX-1" value="&lt;font style=&quot;font-size: 33px&quot;&gt;START&lt;br&gt;&lt;/font&gt;" style="rounded=0;whiteSpace=wrap;html=1;" vertex="1" parent="1">
          <mxGeometry x="10" y="300" width="120" height="60" as="geometry" />
        </mxCell>
        <mxCell id="Bq9aWbsnDzeMckkz2ZHX-2" value="" style="rounded=0;whiteSpace=wrap;html=1;" vertex="1" parent="1">
          <mxGeometry x="160" y="300" width="120" height="60" as="geometry" />
        </mxCell>
        <mxCell id="Bq9aWbsnDzeMckkz2ZHX-3" value="" style="rounded=0;whiteSpace=wrap;html=1;" vertex="1" parent="1">
          <mxGeometry x="450" y="300" width="120" height="60" as="geometry" />
        </mxCell>
        <mxCell id="Bq9aWbsnDzeMckkz2ZHX-4" value="" style="rounded=0;whiteSpace=wrap;html=1;" vertex="1" parent="1">
          <mxGeometry x="300" y="300" width="120" height="60" as="geometry" />
        </mxCell>
        <mxCell id="Bq9aWbsnDzeMckkz2ZHX-5" value="" style="rounded=0;whiteSpace=wrap;html=1;" vertex="1" parent="1">
          <mxGeometry x="590" y="300" width="120" height="60" as="geometry" />
        </mxCell>
        <mxCell id="Bq9aWbsnDzeMckkz2ZHX-6" value="" style="rounded=0;whiteSpace=wrap;html=1;" vertex="1" parent="1">
          <mxGeometry x="730" y="300" width="120" height="60" as="geometry" />
        </mxCell>
        <mxCell id="Bq9aWbsnDzeMckkz2ZHX-8" value="" style="rounded=0;whiteSpace=wrap;html=1;" vertex="1" parent="1">
          <mxGeometry x="880" y="300" width="120" height="60" as="geometry" />
        </mxCell>
        <mxCell id="Bq9aWbsnDzeMckkz2ZHX-9" value="" style="rounded=0;whiteSpace=wrap;html=1;" vertex="1" parent="1">
          <mxGeometry x="1020" y="300" width="120" height="60" as="geometry" />
        </mxCell>
        <mxCell id="Bq9aWbsnDzeMckkz2ZHX-10" value="" style="rounded=0;whiteSpace=wrap;html=1;" vertex="1" parent="1">
          <mxGeometry x="1170" y="300" width="120" height="60" as="geometry" />
        </mxCell>
        <mxCell id="Bq9aWbsnDzeMckkz2ZHX-11" value="" style="rounded=0;whiteSpace=wrap;html=1;" vertex="1" parent="1">
          <mxGeometry x="1310" y="300" width="120" height="60" as="geometry" />
        </mxCell>
        <mxCell id="Bq9aWbsnDzeMckkz2ZHX-13" value="" style="rounded=0;whiteSpace=wrap;html=1;" vertex="1" parent="1">
          <mxGeometry x="1450" y="300" width="120" height="60" as="geometry" />
        </mxCell>
        <mxCell id="Bq9aWbsnDzeMckkz2ZHX-14" value="" style="rounded=0;whiteSpace=wrap;html=1;" vertex="1" parent="1">
          <mxGeometry x="1590" y="300" width="120" height="60" as="geometry" />
        </mxCell>
        <mxCell id="Bq9aWbsnDzeMckkz2ZHX-28" style="edgeStyle=orthogonalEdgeStyle;rounded=0;orthogonalLoop=1;jettySize=auto;html=1;exitX=1;exitY=0.5;exitDx=0;exitDy=0;entryX=0;entryY=0.5;entryDx=0;entryDy=0;" edge="1" parent="1" source="Bq9aWbsnDzeMckkz2ZHX-15" target="Bq9aWbsnDzeMckkz2ZHX-19">
          <mxGeometry relative="1" as="geometry" />
        </mxCell>
        <mxCell id="Bq9aWbsnDzeMckkz2ZHX-15" value="" style="whiteSpace=wrap;html=1;" vertex="1" parent="1">
          <mxGeometry x="1730" y="300" width="120" height="60" as="geometry" />
        </mxCell>
        <mxCell id="Bq9aWbsnDzeMckkz2ZHX-16" value="" style="whiteSpace=wrap;html=1;" vertex="1" parent="1">
          <mxGeometry x="2050" y="300" width="120" height="60" as="geometry" />
        </mxCell>
        <mxCell id="Bq9aWbsnDzeMckkz2ZHX-18" value="" style="triangle;whiteSpace=wrap;html=1;" vertex="1" parent="1">
          <mxGeometry x="200" y="410" width="60" height="80" as="geometry" />
        </mxCell>
        <mxCell id="Bq9aWbsnDzeMckkz2ZHX-29" style="edgeStyle=orthogonalEdgeStyle;rounded=0;orthogonalLoop=1;jettySize=auto;html=1;exitX=1;exitY=0.5;exitDx=0;exitDy=0;" edge="1" parent="1" source="Bq9aWbsnDzeMckkz2ZHX-19" target="Bq9aWbsnDzeMckkz2ZHX-16">
          <mxGeometry relative="1" as="geometry" />
        </mxCell>
        <mxCell id="Bq9aWbsnDzeMckkz2ZHX-19" value="" style="triangle;whiteSpace=wrap;html=1;" vertex="1" parent="1">
          <mxGeometry x="1910" y="290" width="60" height="80" as="geometry" />
        </mxCell>
        <mxCell id="Bq9aWbsnDzeMckkz2ZHX-23" value="" style="triangle;whiteSpace=wrap;html=1;" vertex="1" parent="1">
          <mxGeometry x="200" y="170" width="60" height="80" as="geometry" />
        </mxCell>
        <mxCell id="Bq9aWbsnDzeMckkz2ZHX-26" style="edgeStyle=orthogonalEdgeStyle;rounded=0;orthogonalLoop=1;jettySize=auto;html=1;exitX=0.5;exitY=1;exitDx=0;exitDy=0;entryX=0.5;entryY=0;entryDx=0;entryDy=0;" edge="1" parent="1" source="Bq9aWbsnDzeMckkz2ZHX-25" target="Bq9aWbsnDzeMckkz2ZHX-18">
          <mxGeometry relative="1" as="geometry" />
        </mxCell>
        <mxCell id="Bq9aWbsnDzeMckkz2ZHX-27" style="edgeStyle=orthogonalEdgeStyle;rounded=0;orthogonalLoop=1;jettySize=auto;html=1;exitX=0.5;exitY=0;exitDx=0;exitDy=0;entryX=0.3;entryY=0.85;entryDx=0;entryDy=0;entryPerimeter=0;" edge="1" parent="1" source="Bq9aWbsnDzeMckkz2ZHX-25" target="Bq9aWbsnDzeMckkz2ZHX-23">
          <mxGeometry relative="1" as="geometry" />
        </mxCell>
        <mxCell id="Bq9aWbsnDzeMckkz2ZHX-25" value="" style="rounded=0;whiteSpace=wrap;html=1;" vertex="1" parent="1">
          <mxGeometry x="160" y="300" width="120" height="60" as="geometry" />
        </mxCell>
      </root>
    </mxGraphModel>
  </diagram>
</mxfile>
